# xmcd
#
# Track frame offsets:
#	150
#	15472
#	30610
#	42398
#	52889
#	60914
#	73598
#	85289
#	95023
#	108690
#	120397
#	136873
#	149993
#	165390
#	176819
#	190148
#	197901
#	212904
#	224338
#	237608
#
# Disc length: 3292 seconds
#
# Revision: 1
# Processed by: cddbd v1.5.2PL0 Copyright (c) Steve Scherf et al.
# Submitted via: audiograbber 1.82.02
#
DISCID=2c0cda14
DTITLE=Various Artist - Country Roads Vol 10
DYEAR=1999
DGENRE=Country
TTITLE0=Merle Haggard - San Antonio Rose
TTITLE1=John Denver - Rhymes And Reasons
TTITLE2=Matchbox - While I'm Away
TTITLE3=Carl Perkins - What Am I Living For
TTITLE4=Roger Miller - Do Wakka Do
TTITLE5=Gene Simmons - The Haunted House
TTITLE6=Patsy Cline - A Poor Man's Roses
TTITLE7=Jeanne C Riley - Girl Most Likely
TTITLE8=Jerry Lee Lewis - Another Place, Another Time
TTITLE9=Lynn Anderson - You're My Man
TTITLE10=Johnny Cash - A Boy Named Sue
TTITLE11=Everly Brothers - Till I Kiss You
TTITLE12=Ricky Nelson - It's Late
TTITLE13=Bobby Bare - Daddy What If
TTITLE14=Tammy Wynette - D I V O R C E
TTITLE15=Willie Nelson - If You've Got The Money, I've Got The Time
TTITLE16=Lee Greenwood - What You Don't Say
TTITLE17=Ferlin Husky - Say When
TTITLE18=Mickey Gilley - Room Full Of Roses
TTITLE19=Rusty Draper - I'm A Ramblin' Man
EXTD=
EXTT0=
EXTT1=
EXTT2=
EXTT3=
EXTT4=
EXTT5=
EXTT6=
EXTT7=
EXTT8=
EXTT9=
EXTT10=
EXTT11=
EXTT12=
EXTT13=
EXTT14=
EXTT15=
EXTT16=
EXTT17=
EXTT18=
EXTT19=
PLAYORDER=
